<?xml version="1.0" encoding="utf-8"?>
<!-- Generator: Adobe Illustrator 26.0.2, SVG Export Plug-In . SVG Version: 6.00 Build 0)  -->
<svg version="1.1" id="Layer_1" xmlns="http://www.w3.org/2000/svg" xmlns:xlink="http://www.w3.org/1999/xlink" width="140px" height="48px"
	 viewBox="0 0 140 48" style="enable-background:new 0 0 140 48;" xml:space="preserve">
<style type="text/css">
	.st0{fill:#FFFFFF;}
</style>
<g>
	<path class="st0" d="M67.9,41.3c-0.5-0.6-1-1.1-1.5-1.7c-0.1-0.1-0.4-0.2-0.6-0.2c-0.3,0-0.6,0.1-0.9,0.2c-1,0.1-1.7-0.6-1.4-1.5
		c0.1-0.6,0.4-1.2,0.6-1.7c0.4-1,0.9-1.9,1.3-2.9c0.1-0.2,0.2-0.4-0.1-0.6c-0.5-0.3-0.7-0.7-0.5-1.1c0.3-0.5,0.7-0.4,1.1-0.2
		c0,0,0.1,0,0.2,0.1c0,0,0.1-0.1,0.1-0.1c0-1.7,0-3.3,0-5c0-0.4-0.2-0.6-0.5-0.6c-1.7,0-3.4,0-5.2,0c0,0.2,0.1,0.3,0.1,0.4
		c0.2,0.4,0.1,0.7-0.3,0.9c-0.4,0.2-0.8,0.2-1-0.2c-0.3-0.5-0.5-0.4-0.9-0.2c-1.1,0.5-2.1,1-3.2,1.4c-0.5,0.2-1,0.4-1.6,0.4
		c-0.9,0.1-1.3-0.4-1.3-1.3c0-0.2,0.1-0.3,0.1-0.5c0.2-0.9,0.2-0.9-0.6-1.4c-0.4-0.3-0.8-0.7-1.1-1.1c-0.1-0.1,0-0.5,0.1-0.7
		c0.3-0.3,0.7-0.6,1-0.9c0.5-0.5,0.7-1,0.6-1.8c-0.2-1,0.3-1.6,1.4-1.4c0.6,0.1,1.2,0.3,1.8,0.5c1,0.4,1.9,0.9,2.9,1.3
		c0.3,0.1,0.5,0.2,0.7-0.2c0.3-0.5,0.6-0.6,1.1-0.3c0.4,0.3,0.5,0.6,0.2,1c0,0,0,0.1-0.1,0.2c0.2,0,0.3,0,0.5,0c1.6,0,3.1,0,4.7,0
		c0.3,0,0.6-0.1,0.6-0.5c0-1.7,0-3.4,0-5c0-0.1,0-0.1-0.1-0.2c-0.1,0.1-0.2,0.1-0.4,0.2c-0.4,0.2-0.7,0.1-0.9-0.3
		c-0.2-0.4-0.1-0.9,0.3-1.1c0.5-0.2,0.4-0.4,0.2-0.8c-0.5-1-1-2-1.4-3c-0.2-0.5-0.4-1.1-0.4-1.7c-0.1-0.9,0.4-1.4,1.3-1.3
		c0.2,0,0.4,0.1,0.6,0.1c0.6,0.2,0.9,0,1.3-0.5c0.3-0.4,0.6-0.8,0.9-1.1c0.3-0.3,0.7-0.3,0.9,0c0.4,0.4,0.8,0.8,1.1,1.3
		c0.2,0.3,0.4,0.4,0.7,0.3c0.2-0.1,0.5-0.1,0.7-0.2c1.1-0.2,1.8,0.6,1.5,1.7c-0.1,0.5-0.3,1.1-0.6,1.6c-0.4,1-0.9,1.9-1.3,2.8
		c-0.1,0.2-0.2,0.5,0.1,0.6c0.5,0.3,0.7,0.7,0.4,1.1c-0.2,0.4-0.5,0.5-1.1,0.2c0,0-0.1,0-0.2-0.1c0,0.5,0,0.9,0,1.4
		c0,1.3,0,2.5,0,3.8c0,0.3,0,0.5,0.4,0.5c1.7,0,3.4,0,5.2,0c0-0.5-0.3-1.2,0.5-1.4c0.6-0.1,1,0.1,1.1,0.8c0.6-0.3,1.2-0.5,1.7-0.7
		c0.7-0.3,1.4-0.7,2.1-0.9c0.5-0.2,1-0.3,1.5-0.4c0.8-0.1,1.3,0.3,1.3,1.1c0,0.2,0,0.4,0,0.7c0,0.5,0.2,1,0.6,1.3
		c0.3,0.3,0.6,0.6,0.9,1c0.3,0.4,0.3,0.8-0.1,1.1c-0.3,0.2-0.5,0.4-0.8,0.6c-0.5,0.4-0.8,0.9-0.6,1.6c0,0.2,0.1,0.3,0.1,0.5
		c0.1,0.8-0.3,1.2-1.1,1.2c-0.6,0-1.3-0.2-1.8-0.4c-1.1-0.4-2.1-0.9-3.1-1.4c-0.4-0.2-0.7-0.3-0.9,0.2c-0.2,0.4-0.6,0.5-1,0.2
		c-0.4-0.2-0.4-0.6-0.2-1c0-0.1,0.1-0.2,0.1-0.3c-0.2,0-0.4,0-0.5,0c-1.5,0-3.1,0-4.6,0c-0.4,0-0.6,0.1-0.6,0.6c0,1.7,0,3.3,0,5.1
		c0.2-0.1,0.3-0.2,0.5-0.2c0.4-0.2,0.7,0,0.9,0.4c0.2,0.4,0.2,0.8-0.2,1c-0.6,0.2-0.4,0.5-0.2,1c0.5,1,0.9,2,1.4,3
		c0.2,0.5,0.4,1,0.4,1.5c0.1,0.9-0.4,1.4-1.3,1.4c-0.4,0-0.7-0.2-1-0.2c-0.2,0-0.4,0.1-0.5,0.2c-0.6,0.5-1.1,1.1-1.7,1.7
		C68,41.3,68,41.3,67.9,41.3z M68,37c0.1,0,0.2,0,0.2,0c0-0.2,0-0.4,0-0.6c0-3.6,0-7.2,0-10.7c0-1.7-0.1-1.5,1.5-1.5
		c3.6,0,7.2,0,10.8,0c0.2,0,0.4-0.1,0.6-0.1c0-0.1,0-0.1,0-0.2c-0.2,0-0.4,0-0.6,0c-3.8,0-7.5,0-11.3,0c-1.1,0-1.1,0-1.1-1
		c0-3.8,0-7.5,0-11.3c0-0.2,0-0.4-0.1-0.6c-0.1,0-0.1,0-0.2,0c0,0.2-0.1,0.4-0.1,0.6c0,3.8,0,7.6,0,11.5c0,0.8-0.1,0.8-0.8,0.8
		c-3.9,0-7.9,0-11.8,0c-0.1,0-0.3,0-0.4,0.1c0,0.1,0,0.1,0,0.2c0.2,0,0.4,0.1,0.6,0.1c3.5,0,7,0,10.5,0c0.4,0,0.9,0,1.3,0
		c0.3,0,0.5,0.2,0.5,0.5c0,0.2,0,0.4,0,0.6c0,3.7,0,7.4,0,11.1C67.9,36.6,68,36.8,68,37z M66.3,13.3c0-0.7,0-1.3,0-2
		c0-0.3-0.1-0.7-0.3-1c-0.1-0.1-0.3-0.3-0.5-0.3c-0.1,0-0.3,0.3-0.3,0.4C65.2,11.5,65.6,12.5,66.3,13.3z M66.2,34.6
		c-0.7,0.8-1,1.7-1,2.8c0,0.2,0.2,0.5,0.3,0.5c0.2,0,0.4-0.1,0.5-0.3c0.1-0.1,0.2-0.4,0.2-0.6C66.3,36.2,66.2,35.4,66.2,34.6z
		 M78.6,22.1c1,0,1.9,0.2,2.9-0.1c0.1,0,0.3-0.1,0.3-0.2c0.1-0.1,0.2-0.3,0.2-0.5c0-0.1-0.3-0.2-0.4-0.2
		C80.5,21.1,79.6,21.4,78.6,22.1z M57.4,25.7c-0.8,0-1.6,0-2.4,0c-0.3,0-0.5,0.1-0.8,0.3c-0.1,0.1-0.2,0.3-0.2,0.5
		c0,0.1,0.2,0.2,0.4,0.2C55.5,26.8,56.5,26.4,57.4,25.7z M69.9,34.6c0,0.6,0,1.2,0,1.8c0,0.4,0.1,0.8,0.3,1.1
		c0.1,0.2,0.3,0.3,0.5,0.4c0.1-0.2,0.3-0.4,0.3-0.6C70.9,36.3,70.6,35.4,69.9,34.6z M69.9,13.4c0.6-0.8,0.9-1.6,1-2.5
		c0-0.3,0.2-0.9-0.3-0.9c-0.5-0.1-0.7,0.5-0.7,0.8C69.9,11.6,69.9,12.5,69.9,13.4z M78.8,25.8c0.8,0.7,1.8,1,2.8,1
		c0.2,0,0.4-0.2,0.5-0.3c0-0.1-0.1-0.4-0.3-0.5c-0.1-0.1-0.3-0.2-0.5-0.2C80.5,25.8,79.6,25.8,78.8,25.8z M57.4,22.1
		c-1-0.7-1.9-1.1-3-1c-0.2,0-0.4,0.2-0.5,0.3c0,0.1,0.1,0.4,0.3,0.5c0.2,0.1,0.5,0.3,0.8,0.3C55.8,22.2,56.5,22.1,57.4,22.1z"/>
	<path class="st0" d="M107.7,30.7c-1.3,0-2.6,0-3.8,0c0.8-0.3,0.9-1,0.9-1.7c0-3.3,0-6.6,0-9.9c0-1.2-0.1-1.2-1.2-1.5
		c0,0-0.1-0.1-0.1-0.1c0,0,0-0.1,0-0.1c1.9,0,3.9-0.1,5.8,0.1c2.4,0.2,3.6,2.3,2.6,4.5c-0.3,0.8-0.9,1.5-1.4,2.2
		c-0.3,0.4-0.4,0.6-0.1,0.9c1,1.2,2,2.5,3.1,3.8c0.8,0.9,1.7,1.6,3,1.8c-0.2,0-0.5,0.1-0.7,0.1c-1.5,0.1-2.8-0.3-3.8-1.5
		c-0.9-1.2-1.8-2.4-2.7-3.6c-0.4-0.5-0.8-0.7-1.4-0.7c-0.4,0-0.7,0-1.1,0c-0.4,0-0.5,0.1-0.5,0.5c0,1.3,0,2.6,0.1,4
		c0,0.5,0.3,0.9,0.8,0.9c0.2,0,0.3,0.1,0.5,0.1C107.7,30.6,107.7,30.6,107.7,30.7z M107.9,24.5c0.2,0,0.4,0,0.6,0c1,0,1.6-0.5,2-1.4
		c0.1-0.3,0.2-0.5,0.3-0.8c0.6-2.7-1.1-4.7-3.8-4.4c-0.4,0-0.6,0.2-0.6,0.6c0,1.6,0,3.3,0,4.9c0,0.8,0.3,1,1.1,1.1
		C107.6,24.5,107.7,24.5,107.9,24.5z"/>
	<path class="st0" d="M115.1,17.4c1.4,0,2.7,0,4.1,0c0,0,0,0.1,0,0.1c-0.1,0-0.3,0.1-0.4,0.1c-0.4,0.1-0.7,0.4-0.7,0.8
		c0,0.5-0.1,0.9,0,1.4c0,2.1,0,4.2,0.1,6.3c0,0.4,0.1,0.9,0.2,1.3c0.5,2,1.8,3,3.7,3c1.9,0,3.2-1.1,3.7-3c0.2-0.7,0.2-1.4,0.2-2.1
		c0-2,0-4.1,0-6.1c0-1.2-0.1-1.3-1.3-1.6c0,0-0.1-0.1-0.2-0.1c1.3,0,2.5,0,3.7,0c0,0,0,0.1,0,0.1c-0.9,0.2-1.1,0.7-1.1,1.5
		c0,2,0,3.9,0,5.9c0,0.8-0.1,1.7-0.3,2.5c-0.7,2.6-3.1,4-5.9,3.5c-2.7-0.5-4.2-2.1-4.3-4.9c-0.1-2.3-0.1-4.7-0.1-7
		c0-1.2-0.1-1.3-1.3-1.5C115.1,17.5,115,17.5,115.1,17.4C115,17.4,115,17.4,115.1,17.4z"/>
	<path class="st0" d="M131.7,30c1.3,0,2.5,0,3.8,0c0.8,0,1.5,0,2.3-0.1c1-0.1,1.7-0.6,1.9-1.6c0-0.1,0-0.1,0.1-0.2
		c0,0,0.1,0,0.2-0.1c0,0.2,0.1,0.4,0.1,0.6c-0.1,0.5-0.1,0.9-0.2,1.4c-0.1,0.7-0.3,0.9-1,0.9c-1.2,0-2.4,0-3.6,0c-1.7,0-3.3,0-5-0.1
		c-0.2,0-0.3-0.1-0.5-0.1c0.1-0.2,0.1-0.4,0.2-0.5c2.4-3.7,4.9-7.4,7.3-11.2c0.2-0.3,0.3-0.5,0.6-1c-2,0.1-3.9,0.1-5.8,0.2
		c-0.8,0.1-1.4,0.6-1.7,1.5c0,0.1-0.1,0.2-0.1,0.3c0,0-0.1,0-0.1,0.1c0-0.2-0.1-0.3-0.1-0.4c0.1-0.6,0.2-1.2,0.3-1.8
		c0.1-0.5,0.3-0.7,0.8-0.6c0.3,0.1,0.7,0.1,1,0.1c2.3,0,4.7,0,7,0c0.2,0,0.3,0.1,0.5,0.1c-0.1,0.2-0.1,0.4-0.2,0.5
		c-2.5,3.8-5,7.6-7.5,11.4C131.9,29.6,131.8,29.7,131.7,30z"/>
	<path class="st0" d="M26.2,30.7c-1,0-2,0-2.9,0c-0.1-0.4-0.1-0.8-0.2-1.2c-0.4-1.2-0.9-2.3-1.3-3.4c-0.1-0.4-0.4-0.6-0.8-0.6
		c-1,0-2,0-3,0c-0.4,0-0.6,0.1-0.7,0.5c-0.3,1.1-0.7,2.2-1.1,3.2c-0.2,0.8-0.2,0.9,0.6,1.4c-1.3,0-2.4,0-3.5,0c0,0,0,0,0,0
		c1.3-0.2,1.8-1.2,2.2-2.3c1.3-3.6,2.6-7.2,4-10.7c0.1-0.2,0.2-0.3,0.3-0.5c0.1,0.2,0.3,0.3,0.4,0.5c1.4,3.7,2.9,7.3,4.3,11
		C24.7,29.5,25.1,30.3,26.2,30.7z M21.2,24.8c-0.6-1.7-1.2-3.4-1.8-5c-0.1,0-0.1,0-0.2,0c-0.5,1.6-1.1,3.3-1.7,5
		C18.9,24.8,20,24.8,21.2,24.8z"/>
	<path class="st0" d="M39.9,30.6c-1.1,0-2.1,0-3.2,0c1.3-0.2,1.6-1.3,2-2.3c1.3-3.6,2.7-7.2,4-10.8c0.1-0.2,0.2-0.3,0.3-0.5
		c0.1,0.2,0.3,0.3,0.3,0.5c1.5,3.7,2.9,7.4,4.3,11.1c0.3,0.9,0.8,1.7,1.8,2c-1,0-2,0-2.9,0c-0.1-0.4,0-0.8-0.1-1.1
		c-0.4-1.2-0.9-2.3-1.3-3.4c-0.2-0.5-0.4-0.7-1-0.6c-0.9,0-1.9,0-2.8,0c-0.4,0-0.6,0.1-0.7,0.5c-0.4,1.1-0.7,2.2-1.1,3.3
		C39.2,29.9,39.2,30.3,39.9,30.6z M40.9,24.8c1.3,0,2.4,0,3.6,0c-0.6-1.7-1.2-3.4-1.8-5c-0.1,0-0.1,0-0.2,0
		C42.1,21.4,41.5,23.1,40.9,24.8z"/>
	<path class="st0" d="M101.4,27.8c-0.2,0.8-0.3,1.6-0.5,2.4c0,0.2-0.3,0.4-0.5,0.4c-2.4,0.5-4.8,0.6-7.1-0.3c-3-1.2-4.6-4.1-4.1-7.4
		c0.5-3.2,2.8-5.4,6.1-5.8c1.9-0.2,3.8,0.1,5.7,0.4c0.1,0,0.4,0.2,0.4,0.3c0,0.9-0.1,1.9-0.1,2.8c0,0-0.1,0.1-0.2,0.2
		c-0.1-0.3-0.1-0.5-0.1-0.6c-0.1-1-0.6-1.6-1.5-2c-1.7-0.7-3.5-0.8-5.3-0.2c-1.7,0.6-2.7,1.7-3.1,3.4c-0.6,2.9-0.1,5.5,2.4,7.4
		c1.8,1.4,3.9,1.6,6,1c0.8-0.2,1.2-0.8,1.5-1.5c0.1-0.2,0.1-0.4,0.2-0.6C101.2,27.8,101.3,27.8,101.4,27.8z"/>
	<path class="st0" d="M12.2,27.6c0,0.4-0.1,0.8-0.1,1.2c-0.3,1.7-0.3,1.7-2,2c-2,0.3-4,0.3-5.9-0.5c-5-2.1-5.1-7.7-2.8-10.8
		c1.4-1.8,3.4-2.5,5.5-2.5c1.6,0,3.2,0.3,4.8,0.4c0.1,0,0.4,0.2,0.4,0.4c0,1-0.1,1.9-0.2,2.9c-0.1,0-0.1,0-0.2,0
		c0-0.2-0.1-0.3-0.1-0.5c-0.1-1-0.6-1.7-1.5-2c-1.3-0.5-2.6-0.7-4.1-0.5c-2.5,0.4-3.8,1.6-4.3,4c-0.8,3.6,1.1,7,4.4,8.1
		c1.3,0.4,2.7,0.4,4,0c0.8-0.2,1.3-0.8,1.6-1.6c0.1-0.2,0.1-0.5,0.2-0.7C12.1,27.6,12.1,27.6,12.2,27.6z"/>
	<path class="st0" d="M28.4,27.8c0.1,0.3,0.1,0.6,0.2,0.8c0.4,1.1,1.3,1.8,2.5,1.8c1.3,0,2.3-0.7,2.6-1.8c0.2-0.9,0-1.7-0.5-2.4
		c-0.5-0.5-1-1-1.6-1.5c-0.6-0.6-1.3-1-1.9-1.7c-0.5-0.6-0.9-1.3-1.1-2c-0.5-2,0.8-3.6,2.8-3.8c1-0.1,2,0.1,2.9,0.2
		c0.1,0,0.3,0.2,0.3,0.3c0,0.7,0,1.3,0,2c0,0-0.1,0-0.1,0c-0.1-0.2-0.2-0.3-0.2-0.5c-0.2-0.9-0.7-1.3-1.6-1.4
		c-0.2,0-0.3-0.1-0.5-0.1c-1-0.1-1.9,0.2-2.3,1.1c-0.5,1-0.2,1.8,0.5,2.6c0.4,0.4,0.9,0.8,1.3,1.2c0.7,0.7,1.5,1.2,2.2,2
		c1.1,1.1,1.4,2.5,0.9,4c-0.5,1.5-1.7,2.2-3.2,2.4c-1,0.1-1.9,0-2.9-0.3c-0.5-0.2-0.7-0.4-0.7-0.9c0.1-0.7,0.1-1.3,0.1-2
		C28.3,27.8,28.4,27.8,28.4,27.8z"/>
</g>
</svg>
